<?xml version="1.0" encoding="UTF-8" standalone="no"?>
<!DOCTYPE svg PUBLIC "-//W3C//DTD SVG 1.1//EN"
 "http://www.w3.org/Graphics/SVG/1.1/DTD/svg11.dtd">
<!-- Generated by graphviz version 2.43.0 (0)
 -->
<!-- Title: half_adder Pages: 1 -->
<svg width="277pt" height="229pt"
 viewBox="0.00 0.00 276.98 229.00" xmlns="http://www.w3.org/2000/svg" xmlns:xlink="http://www.w3.org/1999/xlink">
<g id="graph0" class="graph" transform="scale(1 1) rotate(0) translate(4 225)">
<title>half_adder</title>
<polygon fill="white" stroke="transparent" points="-4,4 -4,-225 272.98,-225 272.98,4 -4,4"/>
<text text-anchor="middle" x="134.49" y="-7.8" font-family="Times,serif" font-size="14.00">half_adder</text>
<!-- n1 -->
<g id="node1" class="node">
<title>n1</title>
<polygon fill="none" stroke="black" points="75.97,-87.54 75.97,-102.46 53.72,-113 22.26,-113 0.01,-102.46 0.01,-87.54 22.26,-77 53.72,-77 75.97,-87.54"/>
<text text-anchor="middle" x="37.99" y="-91.3" font-family="Times,serif" font-size="14.00">carry</text>
</g>
<!-- c8 -->
<g id="node5" class="node">
<title>c8</title>
<polygon fill="none" stroke="black" points="111.98,-131.5 111.98,-200.5 268.98,-200.5 268.98,-131.5 111.98,-131.5"/>
<text text-anchor="middle" x="131.98" y="-185.3" font-family="Times,serif" font-size="14.00">in1</text>
<polyline fill="none" stroke="black" points="111.98,-177.5 151.98,-177.5 "/>
<text text-anchor="middle" x="131.98" y="-162.3" font-family="Times,serif" font-size="14.00">in2</text>
<polyline fill="none" stroke="black" points="111.98,-154.5 151.98,-154.5 "/>
<text text-anchor="middle" x="131.98" y="-139.3" font-family="Times,serif" font-size="14.00">out</text>
<polyline fill="none" stroke="black" points="151.98,-131.5 151.98,-200.5 "/>
<text text-anchor="middle" x="199.98" y="-169.8" font-family="Times,serif" font-size="14.00">U2</text>
<text text-anchor="middle" x="199.98" y="-154.8" font-family="Times,serif" font-size="14.00">AND_GATE</text>
<polyline fill="none" stroke="black" points="247.98,-131.5 247.98,-200.5 "/>
<text text-anchor="middle" x="258.48" y="-162.3" font-family="Times,serif" font-size="14.00"> </text>
</g>
<!-- n1&#45;&gt;c8 -->
<g id="edge1" class="edge">
<title>n1:e&#45;&gt;c8:w</title>
<path fill="none" stroke="black" d="M75.98,-95C98.48,-95 89.65,-129.17 102.36,-139.85"/>
<polygon fill="black" stroke="black" points="101.38,-143.21 111.98,-143 103.56,-136.56 101.38,-143.21"/>
</g>
<!-- n2 -->
<g id="node2" class="node">
<title>n2</title>
<polygon fill="none" stroke="black" points="71.12,-33.54 71.12,-48.46 51.71,-59 24.27,-59 4.86,-48.46 4.86,-33.54 24.27,-23 51.71,-23 71.12,-33.54"/>
<text text-anchor="middle" x="37.99" y="-37.3" font-family="Times,serif" font-size="14.00">sum</text>
</g>
<!-- c9 -->
<g id="node6" class="node">
<title>c9</title>
<polygon fill="none" stroke="black" points="112.48,-43.5 112.48,-112.5 268.48,-112.5 268.48,-43.5 112.48,-43.5"/>
<text text-anchor="middle" x="132.48" y="-97.3" font-family="Times,serif" font-size="14.00">in1</text>
<polyline fill="none" stroke="black" points="112.48,-89.5 152.48,-89.5 "/>
<text text-anchor="middle" x="132.48" y="-74.3" font-family="Times,serif" font-size="14.00">in2</text>
<polyline fill="none" stroke="black" points="112.48,-66.5 152.48,-66.5 "/>
<text text-anchor="middle" x="132.48" y="-51.3" font-family="Times,serif" font-size="14.00">out</text>
<polyline fill="none" stroke="black" points="152.48,-43.5 152.48,-112.5 "/>
<text text-anchor="middle" x="199.98" y="-81.8" font-family="Times,serif" font-size="14.00">U1</text>
<text text-anchor="middle" x="199.98" y="-66.8" font-family="Times,serif" font-size="14.00">XOR_GATE</text>
<polyline fill="none" stroke="black" points="247.48,-43.5 247.48,-112.5 "/>
<text text-anchor="middle" x="257.98" y="-74.3" font-family="Times,serif" font-size="14.00"> </text>
</g>
<!-- n2&#45;&gt;c9 -->
<g id="edge2" class="edge">
<title>n2:e&#45;&gt;c9:w</title>
<path fill="none" stroke="black" d="M71.99,-41C86.85,-41 91.43,-49.72 101.95,-53.39"/>
<polygon fill="black" stroke="black" points="101.55,-56.87 111.98,-55 102.66,-49.96 101.55,-56.87"/>
</g>
<!-- n3 -->
<g id="node3" class="node">
<title>n3</title>
<polygon fill="none" stroke="black" points="64.99,-141.54 64.99,-156.46 49.17,-167 26.8,-167 10.99,-156.46 10.99,-141.54 26.8,-131 49.17,-131 64.99,-141.54"/>
<text text-anchor="middle" x="37.99" y="-145.3" font-family="Times,serif" font-size="14.00">b</text>
</g>
<!-- n3&#45;&gt;c8 -->
<g id="edge3" class="edge">
<title>n3:e&#45;&gt;c8:w</title>
<path fill="none" stroke="black" d="M65.99,-149C83.86,-149 88.7,-160.44 101.88,-164.55"/>
<polygon fill="black" stroke="black" points="101.58,-168.04 111.98,-166 102.58,-161.11 101.58,-168.04"/>
</g>
<!-- n3&#45;&gt;c9 -->
<g id="edge4" class="edge">
<title>n3:e&#45;&gt;c9:w</title>
<path fill="none" stroke="black" d="M65.99,-149C99.62,-149 79.8,-92.19 102.15,-80.2"/>
<polygon fill="black" stroke="black" points="102.99,-83.6 111.98,-78 101.45,-76.77 102.99,-83.6"/>
</g>
<!-- n4 -->
<g id="node4" class="node">
<title>n4</title>
<polygon fill="none" stroke="black" points="64.99,-195.54 64.99,-210.46 49.17,-221 26.8,-221 10.99,-210.46 10.99,-195.54 26.8,-185 49.17,-185 64.99,-195.54"/>
<text text-anchor="middle" x="37.99" y="-199.3" font-family="Times,serif" font-size="14.00">a</text>
</g>
<!-- n4&#45;&gt;c8 -->
<g id="edge5" class="edge">
<title>n4:e&#45;&gt;c8:w</title>
<path fill="none" stroke="black" d="M65.99,-203C83.51,-203 88.86,-193.58 102,-190.19"/>
<polygon fill="black" stroke="black" points="102.46,-193.66 111.98,-189 101.63,-186.71 102.46,-193.66"/>
</g>
<!-- n4&#45;&gt;c9 -->
<g id="edge6" class="edge">
<title>n4:e&#45;&gt;c9:w</title>
<path fill="none" stroke="black" d="M65.99,-203C111.83,-203 69.97,-116.31 102.11,-102.77"/>
<polygon fill="black" stroke="black" points="102.75,-106.21 111.98,-101 101.52,-99.32 102.75,-106.21"/>
</g>
</g>
</svg>
